<svg width="256" height="256" viewBox="0 0 256 256" fill="none" xmlns="http://www.w3.org/2000/svg">
<rect x="0.5" y="0.5" width="255" height="255" rx="19.5" fill="#3D3047" stroke="black"/>
<path d="M88.375 184.125L74.25 143.625C71.375 136.375 67 137 65 142.75L39.125 224.125L42.5 225.625L88.375 184.125Z" fill="#FD2C3B"/>
<path d="M160.5 184.063L174.625 143.563C177.5 136.313 181.875 136.938 183.875 142.688L209.75 224.063L206.375 225.563L160.5 184.063Z" fill="#FD2C3B"/>
<path d="M124.5 183V3.5C176.875 52.75 187.875 109.75 156.75 183H124.5Z" fill="#A92B38"/>
<path d="M124.535 183V3.5C72.1602 52.75 61.1602 109.75 92.2852 183H124.535Z" fill="#FC2C3B"/>
<path d="M124.5 251.5C98.8751 241.625 89.8748 203.375 97.125 186.125H124.5V251.5Z" fill="#DFD8D5"/>
<path d="M124.5 251.5C150.125 241.625 159.125 203.375 151.875 186.125H124.5V251.5Z" fill="#B6B4B6"/>
<path d="M124.5 186V183L93.75 183.125C94.4719 184.365 95.625 185.625 97 186H124.5Z" fill="#47525E"/>
<path d="M124.5 186V183L155.25 183.125C154.528 184.365 153.375 185.625 152 186H124.5Z" fill="#47525E"/>
<mask id="mask0_1412_246" style="mask-type:alpha" maskUnits="userSpaceOnUse" x="98" y="55" width="53" height="54">
<path d="M146.098 82.125C146.098 94.1329 136.413 103.832 124.508 103.832C112.604 103.832 102.918 94.1329 102.918 82.125C102.918 70.1171 112.604 60.4181 124.508 60.4181C136.413 60.4181 146.098 70.1171 146.098 82.125Z" fill="#D9D9D9" stroke="black" stroke-width="9.33628"/>
</mask>
<g mask="url(#mask0_1412_246)">
<rect x="124.5" y="55.75" width="26.25" height="52.75" fill="#B6B4B6"/>
</g>
<mask id="mask1_1412_246" style="mask-type:alpha" maskUnits="userSpaceOnUse" x="98" y="55" width="53" height="54">
<path d="M102.917 82.125C102.917 94.1329 112.603 103.832 124.507 103.832C136.412 103.832 146.097 94.1329 146.097 82.125C146.097 70.1171 136.412 60.4181 124.507 60.4181C112.603 60.4181 102.917 70.1171 102.917 82.125Z" fill="#D9D9D9" stroke="black" stroke-width="9.33628"/>
</mask>
<g mask="url(#mask1_1412_246)">
<rect width="26.25" height="52.75" transform="matrix(-1 0 0 1 124.516 55.75)" fill="#DFD8D5"/>
</g>
</svg>
